<svg id="youtube" aria-labelledby="simpleicons-youtube-icon" role="img" viewBox="0 0 24 24" xmlns="http://www.w3.org/2000/svg" ><title id="simpleicons-youtube-icon">YouTube icon</title><path d="M20.287 4.723a2.239 2.239 0 0 0-1.574-1.575c-1.397-.382-6.99-.382-6.99-.382s-5.592 0-6.99.367a2.286 2.286 0 0 0-1.574 1.59C2.79 6.121 2.79 9.019 2.79 9.019s0 2.915.369 4.298a2.229 2.229 0 0 0 1.574 1.574c1.413.383 6.99.383 6.99.383s5.593 0 6.99-.368a2.237 2.237 0 0 0 1.574-1.576c.368-1.396.368-4.295.368-4.295s.016-2.914-.368-4.312zM9.941 11.697V6.341l4.65 2.678-4.65 2.678z"/></svg>
