<svg xmlns="http://www.w3.org/2000/svg" viewBox="0 0 24 24" aria-labelledby="simpleicons-youtube-icon"><title id="simpleicons-youtube-icon">YouTube icon</title><path fill="red" d="M23.505 6.239a3.007 3.007 0 0 0-2.113-2.112C19.513 3.615 12 3.615 12 3.615s-7.513 0-9.39.493A3.064 3.064 0 0 0 .495 6.239C0 8.113 0 12 0 12s0 3.908.495 5.762a2.993 2.993 0 0 0 2.116 2.109c1.896.514 9.389.514 9.389.514s7.513 0 9.392-.492a3.007 3.007 0 0 0 2.113-2.113C24 15.908 24 12.02 24 12.02s.021-3.907-.495-5.781zM9.606 15.59V8.409L15.854 12l-6.248 3.59z"/></svg>